# xmcd
#
# Track frame offsets:
#	150
#	18848
#	33003
#	50366
#	63138
#	81876
#	96240
#	112913
#	130601
#	145510
#	162232
#	181022
#
# Disc length: 2785 seconds
#
# Revision: 2
# Processed by: cddbd v1.5.2PL0 Copyright (c) Steve Scherf et al.
# Submitted via: audiograbber 1.83.01
#
DISCID=820adf0c
DTITLE=Jimena - En Soledad
DYEAR=2004
DGENRE=Latin
TTITLE0=En Soledad
TTITLE1=Devuelveme Mis Sueños
TTITLE2=Regresas
TTITLE3=No Me Culpes
TTITLE4=Te Esperare
TTITLE5=Amarraditos
TTITLE6=Arrepentido
TTITLE7=Sorprendeme
TTITLE8=Vas A Caer
TTITLE9=Pasan Los Dias
TTITLE10=En Soledad (Con Los Huracanes Del Norte) (Bonus Track)
TTITLE11=En Soledad (Extended Club Mix) (Bonus Track)
EXTD=
EXTT0=
EXTT1=
EXTT2=
EXTT3=
EXTT4=
EXTT5=
EXTT6=
EXTT7=
EXTT8=
EXTT9=
EXTT10=
EXTT11=
PLAYORDER=
